<?xml version="1.0" encoding="utf-8"?>
<!-- Generator: Adobe Illustrator 13.0.1, SVG Export Plug-In . SVG Version: 6.00 Build 14948)  -->
<!DOCTYPE svg PUBLIC "-//W3C//DTD SVG 1.1//EN" "http://www.w3.org/Graphics/SVG/1.1/DTD/svg11.dtd">
<svg version="1.1" id="Layer_1" xmlns="http://www.w3.org/2000/svg" xmlns:xlink="http://www.w3.org/1999/xlink" x="0px" y="0px"
	 width="48px" height="48px" viewBox="0 0 48 48" enable-background="new 0 0 48 48" xml:space="preserve">
<path fill="#00A2CE" d="M43.5,6h-39C2.025,6,0,8.025,0,10.5v30C0,42.975,2.025,45,4.5,45h39c2.475,0,4.5-2.025,4.5-4.5v-30
	C48,8.025,45.975,6,43.5,6z"/>
<polygon fill="#FFFFFF" points="18.691,25.799 6,35.686 6,12.171 18.691,25.8 "/>
<polygon fill="#E6F4F1" points="8.268,12 39.732,12 24,23.813 "/>
<polygon fill="#FFFFFF" points="19.185,26.33 24,31.5 28.814,26.33 38.686,39 9.317,39 19.187,26.33 "/>
<polygon fill="#FFFFFF" points="29.309,25.799 42,12.17 42,35.684 29.309,25.798 "/>
</svg>
