<?xml version="1.0" encoding="utf-8"?>
<!-- Generator: Adobe Illustrator 13.0.1, SVG Export Plug-In . SVG Version: 6.00 Build 14948)  -->
<!DOCTYPE svg PUBLIC "-//W3C//DTD SVG 1.1//EN" "http://www.w3.org/Graphics/SVG/1.1/DTD/svg11.dtd">
<svg version="1.1" id="Layer_1" xmlns="http://www.w3.org/2000/svg" xmlns:xlink="http://www.w3.org/1999/xlink" x="0px" y="0px"
	 width="54px" height="48px" viewBox="0 0 54 48" enable-background="new 0 0 54 48" xml:space="preserve">
<path fill="#00A2CE" d="M51,42.242c0,2.133,1.221,3.98,3,4.884v0.747c-0.498,0.068-1.007,0.104-1.523,0.104
	c-3.188,0-6.062-1.336-8.096-3.48C43.152,44.823,41.85,45,40.501,45c-7.456,0-13.5-5.373-13.5-12s6.044-12,13.5-12
	s13.5,5.373,13.5,12c0,2.594-0.926,4.996-2.501,6.959C51.18,40.654,51.001,41.427,51,42.242L51,42.242z"/>
<path fill="#0071A1" d="M24,0c13.053,0,23.671,8.466,23.992,19.009c-2.305-1.027-4.855-1.571-7.492-1.571
	c-4.479,0-8.71,1.568-11.913,4.415c-3.321,2.952-5.15,6.911-5.15,11.148c0,2.094,0.447,4.12,1.3,5.99
	c-0.245,0.006-0.491,0.01-0.738,0.01c-1.273,0-2.522-0.081-3.742-0.235C15.102,43.92,8.948,44.845,2.999,44.98v-1.263
	c3.213-1.573,6-4.44,6-7.717c0-0.457-0.036-0.906-0.101-1.345c-5.428-3.575-8.899-9.035-8.899-15.155
	C-0.001,8.731,10.744,0.001,24,0L24,0z"/>
</svg>
